<svg xmlns="http://www.w3.org/2000/svg" width="0" height="0" style="display:none;">
  <!-- Search Icon -->
  <symbol id="search-icon" viewBox="0 0 24 24">
    <path d="M18.031 16.617l4.283 4.282-1.415 1.415-4.282-4.283A8.96 8.96 0 0 1 11 20c-4.968 0-9-4.032-9-9s4.032-9 9-9 9 4.032 9 9a8.96 8.96 0 0 1-1.969 5.617zm-2.006-.742A6.977 6.977 0 0 0 18 11c0-3.868-3.133-7-7-7-3.868 0-7 3.132-7 7 0 3.867 3.132 7 7 7a6.977 6.977 0 0 0 4.875-1.975l.15-.15z"/>
  </symbol>
  
  <!-- Friends Icon -->
  <symbol id="friends-icon" viewBox="0 0 24 24">
    <path d="M12 10a4 4 0 1 0 0-8 4 4 0 0 0 0 8zm0 2c-5.68 0-10.34 3-12 8h24c-1.66-5-6.32-8-12-8z"/>
  </symbol>
  
  <!-- Notifications Icon -->
  <symbol id="notifications-icon" viewBox="0 0 24 24">
    <path d="M20 17h2v2H2v-2h2v-7a8 8 0 1 1 16 0v7zm-2 0v-7a6 6 0 1 0-12 0v7h12zm-9 4h6v2H9v-2z"/>
  </symbol>
  
  <!-- Settings Icon -->
  <symbol id="settings-icon" viewBox="0 0 24 24">
    <path d="M12 1l9.5 5.5v11L12 23l-9.5-5.5v-11L12 1zm0 2.311L4.5 7.653v8.694l7.5 4.342 7.5-4.342V7.653L12 3.311zM12 16a4 4 0 1 1 0-8 4 4 0 0 1 0 8zm0-2a2 2 0 1 0 0-4 2 2 0 0 0 0 4z"/>
  </symbol>
  
  <!-- User Icon -->
  <symbol id="user-icon" viewBox="0 0 24 24">
    <path d="M12 22C6.477 22 2 17.523 2 12S6.477 2 12 2s10 4.477 10 10-4.477 10-10 10zm-4.987-3.744A7.966 7.966 0 0 0 12 20c1.97 0 3.773-.712 5.167-1.892A6.979 6.979 0 0 0 12.16 16a6.981 6.981 0 0 0-5.147 2.256zM5.616 16.82A8.975 8.975 0 0 1 12.16 14a8.972 8.972 0 0 1 6.362 2.634 8 8 0 1 0-12.906.187zM12 13a4 4 0 1 1 0-8 4 4 0 0 1 0 8zm0-2a2 2 0 1 0 0-4 2 2 0 0 0 0 4z"/>
  </symbol>
  
  <!-- Star Icon -->
  <symbol id="star-icon" viewBox="0 0 24 24">
    <path d="M12 18.26l-7.053 3.948 1.575-7.928L.587 8.792l8.027-.952L12 .5l3.386 7.34 8.027.952-5.935 5.488 1.575 7.928z"/>
  </symbol>
  
  <!-- More Icon -->
  <symbol id="more-icon" viewBox="0 0 24 24">
    <path d="M12 3c-1.1 0-2 .9-2 2s.9 2 2 2 2-.9 2-2-.9-2-2-2zm0 14c-1.1 0-2 .9-2 2s.9 2 2 2 2-.9 2-2-.9-2-2-2zm0-7c-1.1 0-2 .9-2 2s.9 2 2 2 2-.9 2-2-.9-2-2-2z"/>
  </symbol>
</svg>
